<?xml version="1.0" encoding="utf-8"?>
<!-- Generator: Adobe Illustrator 22.0.1, SVG Export Plug-In . SVG Version: 6.00 Build 0)  -->
<svg version="1.1" id="Слой_1" xmlns="http://www.w3.org/2000/svg" xmlns:xlink="http://www.w3.org/1999/xlink" x="0px" y="0px"
	 viewBox="0 0 480 480" style="enable-background:new 0 0 480 480;" xml:space="preserve">
<style type="text/css">
	.st0{fill:#7DBCDD;}
	.st1{fill:#7F8281;}
	.st2{fill:#F9AC40;}
	.st3{fill:#FCC865;}
	.st4{fill:#F05A3C;}
	.st5{fill:#FABC64;}
</style>
<g>
	<path class="st0" d="M311.9,311.1c9.3,4,20.3,11.1,29.1,16c12,6.7,23.6,14.1,35.4,21.2c16.5,10.1,33.1,20,47.1,33.5
		c12.5,12.1,18.6,27.4,19.4,44.8c0,0.8,0,1.7,0,2.5c0.7,7.8,0.4,7.6-7.1,10.2c-15,5.1-30.4,8.2-45.9,11.3
		c-9.2,1.8-18.6,2.7-27.9,3.9c-7.2,0.9-14.4,1.8-21.7,2.5c-10.5,1-21,1.9-31.4,2.5c-36.4,2.1-72.8,2.7-109.2,1.3
		c-13.4-0.5-26.9-0.9-40.3-2.6c-9.8-1.3-19.8-2-29.7-2.7c-12.7-0.9-25.2-3.3-37.8-5.3c-13.4-2.1-26.5-5.6-39.5-9.4
		c-0.9-0.3-1.9-0.6-2.8-1c-3.2-1.4-7.9-1.3-9.3-4.2c-1.9-3.8-0.7-8.6-0.2-12.9c2.2-19.5,11.4-35.2,26.7-47.5
		c10.6-8.5,21.9-16,33.4-23.1c10.9-6.7,21.8-13.5,32.9-20c11.2-6.6,22.6-12.9,34-19.3c1.2-0.7,2.6-1,3.9-1.5c0,0-0.1,0.3-0.1,0.3
		c0,1.8,0.5,3.4,0.7,5.2c0.3,3.6,0.4,7.9,0.8,11c1.2,1.4,0.7,3.2,1.4,4.8c4.6,11.4,11.7,20.8,22.1,27.5c7.7,4.9,15.7,9,24.8,11.2
		c3.9,0.9,7,0.9,11.8,2.2c6.1,0,8.1-0.2,12.3-0.1c2.2,0.1,5.7-0.1,7-0.1c3.9-0.9,7.8-1.1,11.7-2.2c11.9-3.3,22.5-8.7,31.8-16.8
		c8.1-7.2,12.7-16.3,15.9-26.4c0.3-2.2,0.7-6.8,0.7-10.7C311.9,315.6,311.9,313.5,311.9,311.1z"/>
	<path class="st1" d="M336.9,174.8c-3.6,5.6-4.4,11.9-5.8,18.2c-0.5,2.4-0.1,5.7-4.6,5.5c-6.1-0.3-6,0.1-6.1-6.2
		c-0.1-12.4-3.8-24-8.1-35.4c-2.4-6.3-6.2-11.9-8.8-18.1c-3-7.1-4.5-14.7-7.1-21.9c-2.6-7.3-7.5-8.5-13.4-3.2
		c-2.9,2.7-5,6.2-6.7,9.6c-7.6,15.1-19.9,22.1-36.6,21.9c-13.5-0.1-27,0-40.5-0.1c-4.2,0-8.3,0-12.6-0.8c-7.1-1.3-11.5,1-14.6,7.7
		c-3.9,8.5-7.9,17.1-9.5,26.4c-0.9,5.3-0.2,10.7-0.3,16c0,2.2-0.1,4.1-3,3.9c-2.4-0.2-5.1,0.8-5.5-3.3c-0.5-5.9-1.7-11.6-3.7-17.2
		c-0.5-1.5-0.9-3-2.8-3.3c-3.7-11-8.5-21.7-10.5-33.2c-3.1-17.9,0.4-35,6.7-51.6c9.2-24.2,28.3-37.1,52.1-44.3
		c17.8-5.4,36.1-6.9,54.4-5.6c20.1,1.4,39.8,6.2,57.9,15.3c6,3,11.9,6.7,15.9,12.7c2,3,2.8,6.4,3.9,9.6c0.8,2.5,1.9,4.1,4.4,5.2
		c5.4,2.3,8.6,6.6,10.5,12.2c7.1,21.3,6.7,42.5-0.3,63.8C340.4,164.1,338.7,169.5,336.9,174.8z"/>
	<path class="st2" d="M180.2,279.4c1.4-0.2,2.4,3.2,3.4,4.2c5.7,6.2,12.9,10.3,20.5,13.6c4.8,2.1,10,3,15,4.7
		c8.4,1.3,14,1.8,20.8,1.9c10,0.1,20.2-0.1,30.2-3.2c10.8-3.4,20.4-8.1,28.5-16.1c1-1,2.3-5,4-5.1c-0.1,9.9,3.1,25.8,0.1,35.6
		c-4.6,14.6-4.1,43.2-61.4,50.7c-17.7-0.1-45.3-6.5-60-47c-0.2-0.5-0.6-12.5-0.8-12.7C180.3,298.1,180.2,287.3,180.2,279.4z"/>
	<path class="st3" d="M336.9,174.8c15.6,0.1,19.9,12.4,18.4,24.5c-1.4,11.8-8.2,20.6-15.6,29.4c-6.1,7.2-13.4,13.1-20.2,19.6
		c-1.8,1.7-2.7,3.9-3.4,6.1c-2.5,8.7-6.8,16.5-12.4,23.5c-1.1,1.4-4.2,5.6-5.2,6.5c-8.1,8-17.7,12.7-28.5,16.1
		c-10,3.1-20.2,3.4-30.2,3.2c-6.8-0.1-14.3-0.5-20.8-1.9c-4.9-1.6-10.2-2.6-15-4.7c-7.6-3.3-14.8-7.4-20.5-13.6
		c-0.9-1-7-8.8-9.1-12.3c-3.7-6.1-6.8-12.4-8.6-19.3c-0.5-2-1.6-3.2-3-4.3c-9.5-7.7-18.4-16-25.6-25.9c-4.9-6.8-9.4-14.1-10.2-22.6
		c-1-9.9,2-20.9,13.1-23.8c2.4-0.6,4.8,0,7.1-0.7c1.9,0.3,2.2,1.8,2.8,3.3c2,5.6,3.2,11.4,3.7,17.2c0.4,4.1,3.1,3.1,5.5,3.3
		c2.9,0.2,3-1.7,3-3.9c0.1-5.3-0.6-10.7,0.3-16c1.6-9.4,5.6-17.9,9.5-26.4c3.1-6.7,7.5-9,14.6-7.7c4.2,0.8,8.4,0.7,12.6,0.8
		c13.5,0.1,27-0.1,40.5,0.1c16.7,0.2,29-6.8,36.6-21.9c1.8-3.5,3.8-6.9,6.7-9.6c5.8-5.3,10.8-4.1,13.4,3.2
		c2.6,7.2,4.1,14.8,7.1,21.9c2.6,6.2,6.4,11.8,8.8,18.1c4.3,11.5,8,23,8.1,35.4c0.1,6.2,0,5.9,6.1,6.2c4.5,0.2,4.1-3.1,4.6-5.5
		C332.5,186.8,333.4,180.4,336.9,174.8z"/>
	<path class="st4" d="M180.4,306c0.2,0.2,0.4,0.3,0.5,0.5c0,0.6,0,1.2,0,1.8c-0.3,12.5,4.9,23.1,12.2,32.8c6,8,13.8,14.1,23.2,18
		c4.8,2,9.5,4,14.8,4.4c3.7,0.3,8.5,1.1,12.4,0.8c18.4-1.5,33.3-7.3,45.2-21.7c6.4-7.7,9.6-18,12.5-27c1.6-5.2,2.6-7.1,2.7-9.6
		c0.1-2.1,1.4,1.3,2.3,1.8c2,1,4.3,1.5,5.8,3.4c0,5.6,0.3,11.2-0.7,16.7c-3.2,10-7.8,19.2-15.9,26.4c-9.3,8.2-13.3,12.3-25.2,15.6
		c-3.9,1.1-12.8,4-17.3,4.3c-6.4,0.5-13.4,0.4-19.8,0c-5.8-0.4-10.7-1.7-14.7-2.7c-9.1-2.2-14.8-6.4-22.5-11.4
		c-10.5-6.7-17.6-16-22.1-27.5c-0.6-1.6-0.7-1.9-1.4-4.8c-0.6-3.9-1.3-8.2-1.3-12.2c0-1.4-0.5-2.1-0.2-3.9c0,0,0.1-0.3,0.1-0.3
		C173.6,308.8,176.8,307.1,180.4,306z"/>
	<path class="st5" d="M182.9,313.5c0.2,0.3,0.3,0.6,0.5,0.8C183.3,314.1,183.1,313.8,182.9,313.5z"/>
</g>
</svg>
