<?xml version="1.0" encoding="utf-8"?>
<!-- Generator: Adobe Illustrator 22.0.1, SVG Export Plug-In . SVG Version: 6.00 Build 0)  -->
<svg version="1.1" id="Слой_1" xmlns="http://www.w3.org/2000/svg" xmlns:xlink="http://www.w3.org/1999/xlink" x="0px" y="0px"
	 viewBox="0 0 480 480" style="enable-background:new 0 0 480 480;" xml:space="preserve">
<style type="text/css">
	.st0{fill:#7DBCDD;}
	.st1{fill:#C2DFEE;}
	.st2{fill:#BEDDED;}
	.st3{fill:#7F8281;}
	.st4{fill:#F9AC40;}
	.st5{fill:#FCFCFD;}
	.st6{fill:#FCC865;}
	.st7{fill:#FEFEFE;}
	.st8{fill:#FCF0E0;}
</style>
<g>
	<path class="st0" d="M363.1,314.5c4.4,1,8.8,1.4,13.2,2.2c3.2,0.6,6.5,0.4,9.6,1.3c7.8,2.4,12.9,6.9,15.6,13.2
		c5.7,13.9,11.3,27.9,16.9,41.9c5.5,13.7,11,27.3,16.5,41c1.2,2.9,2.2,5.8,3.4,8.7c3.5,7.9-1.4,15.1-9.1,18.4
		c-5.1,2.2-10.6,3.6-15.9,5.4c-11.4,3.9-22.9,7.5-35,9.7c-7,1.3-14.1,2.2-21.3,2.9c-11.2,1.1-22.5,1.8-33.7,2.2
		c-8.4,0.3-16.8,0.7-25.3,0.8c-5.3,0.1-10.7,0.2-16,0.3c-6.9,0-13.8,0-20.6,0c-0.3,0-0.7,0-0.9,0.2c-12.6,0-25.2,0-37.7,0
		c-0.3-0.3-0.7-0.2-1.1-0.2c-6.7,0-13.4,0-20.1,0c-7.4-0.1-14.8-0.2-22.2-0.3c-7.9-0.2-15.9-0.5-23.8-0.8
		c-9.7-0.5-19.4-1.1-29.1-1.9c-18.4-1.6-36.3-4.9-53.9-9.6c-6.9-1.8-13.8-3.5-20.7-5.1c-8.4-2-13.3-9.3-10.6-16.2
		c4.5-11.6,9.1-23.2,13.7-34.9c7.9-20.2,15.9-40.3,23.8-60.5c2.3-5.7,6.3-10.4,12.7-13.4c3.1-1.5,6.5-2.3,10.2-2.6
		c4.7-0.3,9.2-1.3,13.8-2c1.7-0.2,3.4-0.5,5-0.7c4.7,2.5,10,3.9,15.1,5.7c1.1,0.4,2.2,0.4,3.3-0.1c1.7-0.8,3.5-1.6,5.2-2.4
		c5-2.2,9.9-4.6,15-6.6c0.2,1.4-0.3,2.7-0.2,4.1c0,4.3,0.5,8.5,1.2,12.7c1.2,7,2.9,14,5.8,20.7c4.2,9.8,8.9,19.5,13.5,29.2
		c0.4,0.8,0.8,1.1,1.7,0.5c2.8-1.6,5.6-3.2,8.5-4.8c11-6.2,22.1-12.3,33.1-18.5c2.9-1.6,4.4-1.3,5.5,1.3c0.3,0.8,0.8,1.1,1.8,1.1
		c2.1,0,4.3,0,6.5,0c3.6,0.1,7.2,0.4,10.8-0.3c2.2,0.1,4.4,0.3,6.6,0.3c2,0,2.5-0.4,2.7-1.9c0.1-1.3,0.6-1.6,2.1-1.3
		c0.7,0.1,1.2,0.5,1.7,0.8c13.8,7.7,27.6,15.5,41.4,23.2c1.2,0.7,1.7,0.7,2.3-0.6c4-8.8,8.2-17.4,12.1-26.2
		c5.1-11.5,7.9-23.4,8.1-35.7c0-1.6-0.2-3.2-0.2-4.8c2.1,0.3,3.9,1.2,5.7,2c4.5,2.1,8.9,4.3,13.6,6.1c2.4,0.9,4.7,1.2,7.3,0.4
		C355,318,359.1,316.2,363.1,314.5z"/>
	<path class="st1" d="M260.5,462.8c0.2-0.2,0.6-0.2,0.9-0.2c6.9,0,13.8,0,20.6,0c0,0.1,0,0.2,0,0.3
		C274.9,462.8,267.7,462.8,260.5,462.8z"/>
	<path class="st2" d="M201.6,462.5c6.7,0,13.4,0,20.1,0c0.4,0,0.8,0,1.1,0.2c-7.1,0-14.1,0-21.2,0
		C201.6,462.7,201.6,462.6,201.6,462.5z"/>
	<path class="st3" d="M159.2,311.2c-5.1,2-10,4.4-15,6.6c-1.8,0.8-3.5,1.6-5.2,2.4c-1.1,0.5-2.2,0.5-3.3,0.1
		c-5.1-1.8-10.4-3.3-15.1-5.7c-0.7-0.7-1.6-1-2.5-1.5c-7.2-4-13.4-8.8-18.8-14.4c-5-5.2-9.4-10.8-13-16.7c-0.2-0.3-0.4-0.6-0.5-0.9
		c-1.2-2.3-0.8-3.5,1.9-4.7c3.4-1.5,6.6-3.1,9.5-5.1c5.5-3.7,11.4-7,16.1-11.5c2.7-2.5,5.3-5.1,8.3-7.9c-1,0-1.6,0-2.2,0
		c-10.6,0-21.3,0-31.9-0.1c-0.5,0-1.3,0.3-1.5-0.3c-0.2-0.5,0.6-0.8,1.1-1.1c14.3-7.5,27.6-16.2,41.8-23.9
		c9.8-5.3,13.5-13.1,12.8-22.5c-0.5-6.4-0.3-12.8-0.3-19.2c0.1-4.6-0.1-9.3-0.1-13.9c0-11.6,0-23.2,0-34.8c0-6.1,0-12.2,0.3-18.3
		c0.3-5.5,1.8-10.8,3.1-16.2c2.9-12.2,9.2-23,18.8-32.5c11.2-11.1,25.1-19.1,41.8-23.7c9.2-2.5,18.4-4.6,28.1-5.4
		c10.7-0.9,21.2,0.1,31.6,2.2c10.7,2.2,21.2,5.1,30.7,9.9c6.4,3.2,12.4,6.9,17.8,11.3c10.8,8.8,18.2,19.2,22.9,31.2
		c2.1,5.5,3.5,11.1,4.4,16.7c1.4,9.4,1.1,18.8,1.1,28.3c0,4.9,0.1,9.8-0.2,14.7c-0.2,3.3,0.9,6.5,1.9,9.7c1.1,3.5,1.9,7,2.6,10.5
		c1.1,5.8,2.4,11.5,3.9,17.2c2.4,8.6,6.3,16.8,11.2,24.7c3,4.8,6.6,9.2,10.3,13.5c4.1,4.7,8.5,9.2,14.2,12.8c2.8,1.8,4.9,4.2,8,5.7
		c1.7,0.8,3,2,4.7,2.7c-0.8,0.8-1.9,0.7-2.8,0.7c-7.8-0.2-15.7,0.2-23.5-0.3c-4.1-0.3-7.8-1.3-11.5-2.8c-0.1-0.1-0.3-0.1-0.4-0.2
		c0,0-0.1,0-0.1,0c0.1,0,0.1,0,0.1,0c0,0.1,0.1,0.3,0.1,0.4c4.5,6.1,10,11.5,16.8,16c1.8,1.2,3.5,2.5,5.2,3.7
		c4.6,3.2,9.8,5.5,14.7,8.4c2,1.2,2.1,1.2,1.1,3.1c-3.4,6.6-7.9,12.6-13.5,18.2c-5.2,5.2-10.8,9.9-17.2,14.1
		c-1.4,0.9-3.1,1.4-4.5,2.2c-4.1,1.7-8.1,3.5-12.4,4.8c-2.6,0.8-4.9,0.5-7.3-0.4c-4.7-1.8-9.1-4.1-13.6-6.1c-1.8-0.8-3.7-1.6-5.7-2
		c-0.5-1.9-0.9-3.8-2.1-5.6c-2.5-3.9-6.1-7-10.3-9.7c-5.5-3.5-11.8-6.1-17.8-9.1c0.1-2.3,0.3-4.6,0.2-6.9c-0.2-3.4-0.2-6.8-0.2-10.2
		c0-2.4,0-4.7,0-7.1c0.5-1.3,0.8-2.7,1.6-3.9c4.3-6.6,7.1-13.7,9.8-20.9c1.4,1,2.2,2.4,3.5,3.3c2.4,1.7,5.2,2.1,8,0.8
		c1.6-0.7,2.7-1.8,3.6-3.1c3.9-5.6,3.9-11.4,1-17.3c-2.1-4.3-5.3-5.9-10.4-5.5c-0.1-1,0-2,0.3-3c0.7-2,0.2-4.1,0.5-6.1
		c0.6-3.9,1.6-7.7,1.5-11.6c-0.1-4.9,0-9.8,0-14.7c0-1.7,0.7-3.4,0.2-5.1c-0.2-0.7,0-1.3,0-2c0.1-2.4,0.5-4.8-0.2-7.2
		c-0.7-2.6-1.6-5.2-1.3-7.9c0.2-2.1-0.3-4.1-0.9-6.1c-0.6-2.1-1.9-4.1-2.4-6.2c-0.8-3.2-1.2-6.4-2.3-9.6c-1-2.9-2.1-5.7-3.5-8.7
		c-0.2,0.5-0.4,0.8-0.4,1.1c-2.4,12.6-9.5,22.9-21.9,30.6c-4.3,2.7-6.2,6.1-5.3,10.6c0.2,1,0.3,2,0.4,3c0.2,2.5,0.4,5.1,0.8,7.6
		c0.3,2.2,1.2,4.3,1.7,6.5c1.2,4.8,2.3,9.5,5.9,13.6c0.7,0.8,1.1,1.7,1.4,2.6c0.1,0.2,0.1,0.5-0.2,0.6c-0.3,0.1-0.5-0.1-0.7-0.3
		c-0.8-1.4-2.4-2.2-3.4-3.5c-1.6-2.3-3.5-4.4-4.8-6.8c-1.7-3.3-4.2-6.3-5-9.9c-0.3-1.2-0.8-2.3-1.5-3.3c-0.6-0.8-0.8-1.7-0.9-2.6
		c-0.3-1.6-0.6-3.2-0.9-4.8c-0.4-2.9-1-5.7-0.5-8.7c0.2-1.4,0.8-2.8,0.6-4.4c-4.1,2.6-8.1,4.9-12.3,6.9c-4.6,2.3-9.2,4.8-14.1,6.6
		c-4.9,1.8-9.9,3.5-15.1,4.7c-4.7,1-9.4,2.2-13.4,4.8c-0.2,0.1-0.5,0.2-0.7,0.3c-6.3,2.1-11,5.9-15.6,9.9
		c-4.8,4.3-8.1,9.5-12.4,14.1c-0.3,0.3-0.5,0.7-0.6,1.1c-0.3,1.5-1.3,2.7-2.3,3.9c-2,2.3-3.8,4.7-5,7.3c-4,4.5-8,9.1-12.1,13.6
		c-2.8,3-2.3,5.4,0.6,8c3.2,2.8,6.9,2.9,10.2,0.2c1.2-1,2.2-2.2,3.3-3.3c0.5,0.5,0.6,1.2,0.9,1.9c1.8,4.1,3.3,8.3,5.3,12.4
		c1.5,3.2,3.7,6.1,4.7,9.5c-0.1,0.9-0.2,1.7-0.2,2.6c0,7.8-0.1,15.5-0.1,23.3c-0.9-0.2-1.6,0.2-2.3,0.5c-3.6,1.8-7.3,3.5-10.8,5.3
		C168,297.4,160.9,302.6,159.2,311.2z M152.1,135.2c1-1.4,1.3-2.6,1.5-3.8c1.7-7.4,4.3-14.6,8.3-21.4c4-6.8,9-13,15.1-18.6
		c5.7-5.2,11.7-10,19.2-13.4c0.6-0.3,1.1-0.7,1.6-1c3.4-1.8,6.7-3.7,10.4-4.9c8.4-2.7,17-4.8,26.1-5.6c6-0.5,12-0.5,17.9,0.2
		c6.3,0.7,12.4,2.1,18.5,3.9c14,4.2,26.1,10.8,36.1,20c8,7.4,13.8,15.8,18.4,24.9c2.5,4.9,3.9,10,5.6,15.1c0.3,0.9,0.4,1.9,1.5,2.6
		c-0.1-1.6,0.5-3.2,0.5-4.7c0.1-4.8-0.1-9.6-0.9-14.4c-1.1-6.6-3.2-13-6.6-19c-5.9-10.6-14-19.9-24.3-28
		c-5.9-4.7-12.6-8.5-19.9-11.6c-12-4.9-24.8-7-38.1-7.1c-3.8,0-7.7,0.2-11.5,0.6c-2.3,0.2-4.7,0-6.8,0.8c-1.8,0.7-3.6,1-5.5,1.2
		c-8.8,1.3-16.4,5.1-23.9,8.7C184.5,64.7,176.2,72,169,80.1c-4.8,5.5-8.1,11.6-11.1,17.9c-3.7,7.7-5.7,15.7-6.2,23.9
		C151.4,126.2,151.3,130.6,152.1,135.2z"/>
	<path class="st4" d="M294,262.4c0,2.4,0,4.7,0,7.1c0,3.4,0.1,6.8,0.2,10.2c0.1,2.3-0.1,4.6-0.2,6.9c-1.4,3.3-2.7,6.6-4.1,9.9
		c-2.8,5.8-5.6,11.7-8.3,17.5c-1.5,2.4-2.8,4.8-4.8,7c-3.3,3.8-7,7.4-10.7,10.9c-6,5.7-12,11.3-18,16.9c-0.9,0.8-1.2,1.7-1.2,2.7
		c-0.1,1.9,0.1,3.7,0.3,5.6c-3.6,0.7-7.2,0.4-10.8,0.3c0.1-1.4,0.1-2.8,0.2-4.2c0-2.1-0.7-3.8-2.5-5.4c-6.8-6.3-13.6-12.6-20.2-19.1
		c-4.5-4.3-8.8-8.7-11.7-14c-4.1-7.6-7.5-15.5-10.9-23.4c-0.6-1.4-0.9-2.9-2-4.1c0-7.8,0.1-15.5,0.1-23.3c0-0.9,0.1-1.7,0.2-2.6
		c0.7,0.2,1,0.7,1.1,1.1c1.3,3.2,4.5,5.6,6.2,8.6c1.5,2.8,4.1,5,6.3,7.5c2.4,2.7,5.6,4.7,8.7,6.8c1.9,1.3,3.4,2.8,5.6,3.8
		c3.8,1.6,7.5,3.3,11.5,4.6c4.2,1.3,8.4,1.8,12.8,2c1.8,0.1,3.6-0.5,5.4-0.5c5.8,0.1,10.9-1.9,15.8-4.1c4.6-2,8.6-4.9,12.4-7.9
		c4.5-3.5,8.1-7.6,11.6-11.8C289.4,268.4,291.6,265.4,294,262.4z"/>
	<path class="st5" d="M189.3,287.2c1.1,1.2,1.4,2.7,2,4.1c3.5,7.8,6.8,15.7,10.9,23.4c2.8,5.3,7.2,9.6,11.7,14
		c6.6,6.4,13.4,12.8,20.2,19.1c1.8,1.6,2.5,3.4,2.5,5.4c0,1.4-0.1,2.8-0.2,4.2c-2.2,0-4.3,0-6.5,0c-1,0-1.4-0.3-1.8-1.1
		c-1.1-2.6-2.6-2.9-5.5-1.3c-11,6.2-22.1,12.3-33.1,18.5c-2.8,1.6-5.7,3.1-8.5,4.8c-1,0.6-1.4,0.4-1.7-0.5
		c-4.6-9.7-9.3-19.3-13.5-29.2c-2.8-6.7-4.6-13.6-5.8-20.7c-0.7-4.2-1.2-8.5-1.2-12.7c0-1.4,0.5-2.7,0.2-4.1
		c1.7-8.6,8.8-13.7,17.1-18.1c3.5-1.9,7.2-3.6,10.8-5.3C187.7,287.3,188.4,287,189.3,287.2z"/>
	<path class="st5" d="M289.9,296.4c1.4-3.3,2.7-6.6,4.1-9.9c5.9,3,12.2,5.6,17.8,9.1c4.2,2.7,7.7,5.8,10.3,9.7
		c1.1,1.8,1.6,3.7,2.1,5.6c0.1,1.6,0.3,3.2,0.2,4.8c-0.2,12.3-3.1,24.2-8.1,35.7c-3.9,8.8-8.1,17.5-12.1,26.2
		c-0.6,1.3-1.1,1.2-2.3,0.6c-13.8-7.8-27.6-15.5-41.4-23.2c-0.5-0.3-1.1-0.6-1.7-0.8c-1.5-0.3-2,0-2.1,1.3c-0.2,1.5-0.7,1.9-2.7,1.9
		c-2.2,0-4.4-0.2-6.6-0.3c-0.2-1.9-0.4-3.7-0.3-5.6c0-1,0.4-1.9,1.2-2.7c6-5.6,12-11.3,18-16.9c3.7-3.5,7.3-7.1,10.7-10.9
		c1.9-2.2,3.3-4.6,4.8-7c0.4,0.1,0.7-0.1,1-0.3c3.6-2.7,6.4-5.9,7.5-9.9C290.8,301.3,291.3,298.8,289.9,296.4z"/>
	<path class="st6" d="M294,262.4c-2.3,3-4.6,6.1-7,9c-3.4,4.2-7.1,8.3-11.6,11.8c-3.8,3-7.7,5.9-12.4,7.9c-4.9,2.1-10,4.1-15.8,4.1
		c-1.8,0-3.6,0.6-5.4,0.5c-4.4-0.2-8.7-0.7-12.8-2c-4-1.3-7.7-3-11.5-4.6c-2.2-0.9-3.7-2.5-5.6-3.8c-3.1-2.1-6.3-4.1-8.7-6.8
		c-2.2-2.4-4.7-4.7-6.3-7.5c-1.7-3.1-4.8-5.4-6.2-8.6c-0.2-0.4-0.5-0.9-1.1-1.1c-1-3.4-3.2-6.3-4.7-9.5c-2-4.1-3.5-8.3-5.3-12.4
		c-0.3-0.6-0.3-1.3-0.9-1.9c0.7-3.3,1.9-6.5,1.6-9.9c-0.3-3.1-1.1-6-3.6-8.4c1.3-2.6,3-5.1,5-7.3c1.1-1.2,2-2.4,2.3-3.9
		c0.1-0.4,0.3-0.8,0.6-1.1c4.3-4.6,7.6-9.8,12.4-14.1c4.5-4,9.3-7.8,15.6-9.9c0.3-0.1,0.5-0.2,0.7-0.3c3.9-2.6,8.7-3.7,13.4-4.8
		c5.2-1.2,10.2-2.9,15.1-4.7c4.9-1.8,9.4-4.3,14.1-6.6c4.2-2.1,8.2-4.4,12.3-6.9c0.2,1.6-0.3,3-0.6,4.4c-0.5,2.9,0.1,5.8,0.5,8.7
		c0.2,1.6,0.6,3.2,0.9,4.8c0.2,0.9,0.3,1.8,0.9,2.6c0.7,1,1.3,2.1,1.5,3.3c0.8,3.6,3.3,6.6,5,9.9c1.3,2.4,3.2,4.6,4.8,6.8
		c1,1.3,2.6,2.1,3.4,3.5c0.1,0.2,0.4,0.4,0.7,0.3c0.3-0.1,0.2-0.4,0.2-0.6c-0.3-0.9-0.7-1.8-1.4-2.6c-3.5-4.1-4.7-8.8-5.9-13.6
		c-0.5-2.2-1.4-4.3-1.7-6.5c-0.4-2.5-0.6-5.1-0.8-7.6c-0.1-1-0.2-2-0.4-3c-0.9-4.5,1-7.9,5.3-10.6c12.4-7.7,19.5-18,21.9-30.6
		c0.1-0.3,0.2-0.6,0.4-1.1c1.4,3,2.4,5.8,3.5,8.7c1.1,3.1,1.5,6.4,2.3,9.6c0.6,2.1,1.9,4.1,2.4,6.2c0.5,2,1.1,4,0.9,6.1
		c-0.3,2.7,0.6,5.3,1.3,7.9c0.7,2.4,0.3,4.8,0.2,7.2c0,0.7-0.2,1.3,0,2c0.4,1.7-0.2,3.4-0.2,5.1c0,4.9-0.1,9.8,0,14.7
		c0.1,3.9-0.9,7.8-1.5,11.6c-0.3,2,0.2,4.1-0.5,6.1c-0.3,1-0.4,2-0.3,3c-2.1,1.4-4,3-5.1,5.1c-2.3,4.4-2.8,9-1.4,13.6
		c0.3,1,0.6,2,0.7,3.1c-2.7,7.1-5.6,14.2-9.8,20.9C294.8,259.7,294.5,261.1,294,262.4z"/>
	<path class="st0" d="M152.1,135.2c-0.8-4.6-0.6-9-0.4-13.3c0.5-8.2,2.5-16.2,6.2-23.9c3-6.3,6.3-12.4,11.1-17.9
		c7.2-8.2,15.5-15.5,26.1-20.6c7.5-3.6,15.1-7.3,23.9-8.7c1.9-0.3,3.8-0.6,5.5-1.2c2.1-0.8,4.5-0.6,6.8-0.8
		c3.8-0.3,7.7-0.6,11.5-0.6c13.3,0.1,26.1,2.1,38.1,7.1c7.3,3,14,6.9,19.9,11.6c10.2,8.1,18.4,17.4,24.3,28c3.4,6,5.4,12.4,6.6,19
		c0.8,4.8,1,9.6,0.9,14.4c0,1.6-0.5,3.1-0.5,4.7c-1.1-0.7-1.2-1.7-1.5-2.6c-1.7-5.1-3.1-10.2-5.6-15.1c-4.6-9.1-10.5-17.5-18.4-24.9
		c-9.9-9.2-22-15.8-36.1-20c-6-1.8-12.1-3.2-18.5-3.9c-5.9-0.7-11.9-0.7-17.9-0.2c-9.1,0.8-17.6,2.9-26.1,5.6
		c-3.7,1.2-7.1,3.1-10.4,4.9c-0.6,0.3-1,0.7-1.6,1c-7.5,3.4-13.5,8.3-19.2,13.4c-6.2,5.6-11.1,11.8-15.1,18.6
		c-4,6.8-6.6,14-8.3,21.4C153.3,132.6,153.1,133.8,152.1,135.2z"/>
	<path class="st0" d="M305.3,237.7c-0.1-1-0.4-2-0.7-3.1c-1.3-4.7-0.8-9.2,1.4-13.6c1.1-2.1,3-3.6,5.1-5.1c5-0.4,8.3,1.2,10.4,5.5
		c2.9,5.9,2.8,11.7-1,17.3c-0.9,1.3-2,2.4-3.6,3.1c-2.8,1.3-5.6,0.9-8-0.8C307.5,240,306.7,238.7,305.3,237.7z"/>
	<path class="st0" d="M176.8,219.2c2.5,2.4,3.3,5.4,3.6,8.4c0.3,3.4-0.9,6.6-1.6,9.9c-1.1,1.1-2.1,2.3-3.3,3.3
		c-3.3,2.8-7,2.7-10.2-0.2c-2.9-2.6-3.4-5-0.6-8C168.8,228.3,172.8,223.7,176.8,219.2z"/>
	<path class="st7" d="M360.5,248.4c-0.1,0-0.1,0-0.2,0C360.4,248.4,360.4,248.4,360.5,248.4C360.5,248.4,360.5,248.4,360.5,248.4z"
		/>
	<path class="st7" d="M360.6,248.8c0-0.1-0.1-0.3-0.1-0.4c0,0,0,0,0,0c0.1,0.1,0.3,0.1,0.4,0.2C360.8,248.7,360.7,248.8,360.6,248.8
		z"/>
	<path class="st8" d="M289.9,296.4c1.3,2.4,0.9,4.9,0.2,7.3c-1.1,4-3.9,7.1-7.5,9.9c-0.3,0.2-0.6,0.4-1,0.3
		C284.4,308.1,287.2,302.3,289.9,296.4z"/>
</g>
</svg>
