<?xml version="1.0" encoding="utf-8"?>
<!-- Generator: Adobe Illustrator 22.0.1, SVG Export Plug-In . SVG Version: 6.00 Build 0)  -->
<svg version="1.1" id="Слой_1" xmlns="http://www.w3.org/2000/svg" xmlns:xlink="http://www.w3.org/1999/xlink" x="0px" y="0px"
	 viewBox="0 0 480 480" style="enable-background:new 0 0 480 480;" xml:space="preserve">
<style type="text/css">
	.st0{opacity:0.7;}
	.st1{fill:#A9ACB5;}
	.st2{opacity:0.4;}
</style>
<g class="st0">
	<path class="st1" d="M206.3,348.8h93.5c1.8,0,3.3,1.4,3.3,3.3v93.5c0,1.8-1.4,3.3-3.3,3.3h-93.5c-1.8,0-3.3-1.4-3.3-3.3V352
		C203,350.2,204.4,348.8,206.3,348.8z"/>
</g>
<g>
	<path class="st1" d="M28.6,309h131.8c2.5,0,4.6,2,4.6,4.6v131.8c0,2.5-2,4.6-4.6,4.6H28.6c-2.5,0-4.6-2-4.6-4.6V313.6
		C24,311,26,309,28.6,309z"/>
</g>
<g class="st0">
	<path class="st1" d="M32.9,169.1h93.5c1.8,0,3.3,1.4,3.3,3.3v93.5c0,1.8-1.4,3.3-3.3,3.3H32.9c-1.8,0-3.3-1.4-3.3-3.3v-93.5
		C29.6,170.6,31.1,169.1,32.9,169.1z"/>
</g>
<g class="st2">
	<path class="st1" d="M32,82h68.4c1.3,0,2.4,1.1,2.4,2.4v68.4c0,1.3-1.1,2.4-2.4,2.4H32c-1.3,0-2.4-1.1-2.4-2.4V84.4
		C29.6,83.1,30.7,82,32,82z"/>
</g>
<g class="st2">
	<path class="st1" d="M324,375.6h68.4c1.3,0,2.4,1.1,2.4,2.4v68.4c0,1.3-1.1,2.4-2.4,2.4H324c-1.3,0-2.4-1.1-2.4-2.4V378
		C321.6,376.7,322.7,375.6,324,375.6z"/>
</g>
</svg>
