<?xml version="1.0" encoding="utf-8"?>
<!-- Generator: Adobe Illustrator 22.0.1, SVG Export Plug-In . SVG Version: 6.00 Build 0)  -->
<svg version="1.1" id="Слой_1" xmlns="http://www.w3.org/2000/svg" xmlns:xlink="http://www.w3.org/1999/xlink" x="0px" y="0px"
	 viewBox="0 0 480 480" style="enable-background:new 0 0 480 480;" xml:space="preserve">
<style type="text/css">
	.st0{opacity:0.7;}
	.st1{fill:#A9ACB5;}
	.st2{opacity:0.4;}
</style>
<g class="st0">
	<path class="st1" d="M289.9,122h-93.5c-1.8,0-3.3-1.4-3.3-3.3V25.2c0-1.8,1.4-3.3,3.3-3.3h93.5c1.8,0,3.3,1.4,3.3,3.3v93.5
		C293.1,120.6,291.7,122,289.9,122z"/>
</g>
<g>
	<path class="st1" d="M457.5,161.8H325.7c-2.5,0-4.6-2-4.6-4.6V25.3c0-2.5,2-4.6,4.6-4.6h131.8c2.5,0,4.6,2,4.6,4.6v131.8
		C462.1,159.7,460.1,161.8,457.5,161.8z"/>
</g>
<g class="st0">
	<path class="st1" d="M453.3,291.6h-93.5c-1.8,0-3.3-1.4-3.3-3.3v-93.5c0-1.8,1.4-3.3,3.3-3.3h93.5c1.8,0,3.3,1.4,3.3,3.3v93.5
		C456.5,290.2,455.1,291.6,453.3,291.6z"/>
</g>
<g class="st2">
	<path class="st1" d="M454.1,388.8h-68.4c-1.3,0-2.4-1.1-2.4-2.4V318c0-1.3,1.1-2.4,2.4-2.4h68.4c1.3,0,2.4,1.1,2.4,2.4v68.4
		C456.5,387.7,455.4,388.8,454.1,388.8z"/>
</g>
<g class="st2">
	<path class="st1" d="M162.1,95.1H93.8c-1.3,0-2.4-1.1-2.4-2.4V24.4c0-1.3,1.1-2.4,2.4-2.4h68.4c1.3,0,2.4,1.1,2.4,2.4v68.4
		C164.5,94.1,163.4,95.1,162.1,95.1z"/>
</g>
</svg>
