<?xml version="1.0" encoding="utf-8"?>
<!-- Generator: Adobe Illustrator 22.0.1, SVG Export Plug-In . SVG Version: 6.00 Build 0)  -->
<svg version="1.1" id="Слой_1" xmlns="http://www.w3.org/2000/svg" xmlns:xlink="http://www.w3.org/1999/xlink" x="0px" y="0px"
	 viewBox="0 0 1922 320" style="enable-background:new 0 0 1922 320;" xml:space="preserve">
<style type="text/css">
	.st0{fill:#F7F8F8;}
	.st1{fill:url(#SVGID_1_);}
	.st2{opacity:0.5;}
	.st3{fill:#FFB3A4;}
	.st4{fill:#FFFFFF;}
	.st5{fill:url(#SVGID_2_);}
	.st6{fill:url(#SVGID_3_);}
	.st7{fill:url(#SVGID_4_);}
</style>
<g>
	<path class="st0" d="M1922,237c0,26.7,0,53.3,0.1,80c0,2.5-0.5,3.5-3,3c-0.6-0.1-1.3,0-2,0c-637.4,0-1274.7,0-1912.1,0.1
		c-4.3,0-5.1-1-5.1-5.2C0.1,270.3,0,225.7,0,181c1.1-0.2,2.4-0.2,3.3-0.8c18.8-11.5,34.2-25.8,39.8-48.2c1.7-6.9,2.8-14,4.3-20.9
		C52.8,87.5,65.8,69,86.2,55.9c28.2-18,56.8-16.2,85.4-0.8c14.6,7.8,25.5,19.4,33.6,33.7c7.8,13.9,10.8,29,9.4,44.6
		c-0.8,9.4-2.3,18.6-0.8,28.1c2.4,15.4,9.4,28.4,20.5,39c11,10.6,24,18,39.4,20.9c26,4.9,48.6-1,67.8-19.6
		c7.5-7.3,12.8-16.3,20.9-23.2c20.5-17.7,43.5-25,70.1-18.6c24.4,5.9,41.8,20.2,51.4,43.7c3.9,9.6,5.1,19.8,7.2,29.9
		c4.8,22.8,15.2,42.7,34.2,56.7c25.1,18.4,53.2,24.9,83.8,17.5c38.3-9.3,63.4-32.7,73.5-71.3c2.7-10.5,2.3-21.5,4.7-31.9
		c5.6-25,18-46.3,39-61.9c11.1-8.2,23.6-13.3,36.8-17.2c16.6-4.9,33.3-6.4,50.4-3.9c27,3.9,48.4,17.6,66.2,37.5
		c4.6,5.2,9.3,10.4,12.2,16.8c7.8,17,19.1,30.9,35.8,39.5c21,10.9,42.6,11.4,64.3,1.8c21-9.4,36.4-24.1,43.2-46.7
		c2.7-9,3.9-18.2,3.1-27.8c-0.9-11-2.1-22,0.2-33.2c6.5-31.8,39.8-62.5,73-65.2c17.4-1.4,34,0.4,49.3,8.4
		c25.5,13.3,38.8,36,44.2,63.5c3.6,18.5,10.7,35.3,23.5,49.2c16.3,17.7,37.6,24.8,61,26.2c11.8,0.7,23.1-1.7,34.1-5.7
		c28.3-10.4,47.5-29.2,54.8-59c2.5-10.3,2-21,3.2-31.3c2.7-23.2,12.4-44,28.4-61.3c16.4-17.8,37-27.8,60.7-31.5
		c1.3-0.2,2.2-0.6,2.4-2c12,0,24,0,36,0c0.1,1.4,1,1.8,2.3,2c42.2,8.3,69.6,33.9,85.4,73.2c4.1,10.3,5,21.2,7.8,31.8
		c6.1,22.7,14.1,44.6,26,65c14.2,24.3,31.9,45.2,55.1,61.3c19.6,13.6,41.3,22.7,64,29.4c18.4,5.4,37.3,7.6,56.4,8
		c11,0.2,22.1-0.8,33.1-2.6c24.7-4,47.8-12.2,69.4-24.8C1912.9,241.8,1916.9,238.3,1922,237z"/>
</g>
<g>
	<g>
		<linearGradient id="SVGID_1_" gradientUnits="userSpaceOnUse" x1="1488.6821" y1="97.6817" x2="1863.6454" y2="306.7141">
			<stop  offset="0" style="stop-color:#FDEABA"/>
			<stop  offset="1" style="stop-color:#EAAC9C"/>
		</linearGradient>
		<path class="st1" d="M1923,320h-645c-2.5-20.2,32.8-29.6,58.1-48.2c56.2-41.6,198.1-43.1,287.4-62.5c89-19.3,91.3-53.2,174.2-83
			C1875.5,98.4,1839.9-2.1,1923,0V320z"/>
	</g>
	<g class="st2">
		<path class="st3" d="M1811.8,320h-500.8c-1.4-12.9,117.7,15.5,196.3-33.3c95.1-59.1,168.2-26.3,216.3-38.7
			c48-12.3,39.1-25.1,55.1-44.2c24.5-29.1,75.1-13.6,104.2-46.9L1811.8,320z"/>
	</g>
	<g class="st2">
		<path class="st4" d="M1913,320h-500.8c-1.4-12.9,78.8-7,170.2-44.2c40-16.3,129.1-10,177.3-22.4c48-12.3,41-38.1,85.7-57.1
			c41.9-17.8,26.7-108,71.5-106.6L1913,320z"/>
	</g>
	<g>
		<linearGradient id="SVGID_2_" gradientUnits="userSpaceOnUse" x1="1574.8347" y1="141.0435" x2="1875.6954" y2="308.7657">
			<stop  offset="0" style="stop-color:#FDEABA"/>
			<stop  offset="1" style="stop-color:#EAAC9C"/>
		</linearGradient>
		<path class="st5" d="M1923,320h-519.8c-1.4-13,86.9-0.4,181.8-37.9c41.6-16.4,135.8-13.4,185.8-25.9
			c49.8-12.5,35.7-41.9,82.1-61.1c43.5-18,23.6-135.9,70.1-134.5V320z"/>
	</g>
</g>
<g>
	<g>
		
			<linearGradient id="SVGID_3_" gradientUnits="userSpaceOnUse" x1="2767.6821" y1="98.6817" x2="3142.6455" y2="307.7141" gradientTransform="matrix(-1 0 0 1 3202.8706 0)">
			<stop  offset="0" style="stop-color:#FDEABA"/>
			<stop  offset="1" style="stop-color:#EAAC9C"/>
		</linearGradient>
		<path class="st6" d="M0.9,321h645c2.5-20.2-32.8-29.6-58.1-48.2c-56.2-41.6-198.1-43.1-287.4-62.5c-89-19.3-91.3-53.2-174.2-83
			C48.4,99.4,84-1.1,0.9,1V321z"/>
	</g>
	<g class="st2">
		<path class="st3" d="M112,321h500.8c1.4-12.9-117.7,15.5-196.3-33.3c-95.1-59.1-168.2-26.3-216.3-38.7
			c-48-12.3-39.1-25.1-55.1-44.2C120.6,175.7,70,191.2,40.9,158L112,321z"/>
	</g>
	<g class="st2">
		<path class="st4" d="M10.9,321h500.8c1.4-12.9-78.8-7-170.2-44.2c-40-16.3-129.1-10-177.3-22.4c-48-12.3-41-38.1-85.7-57.1
			C36.5,179.5,51.7,89.3,6.9,90.7L10.9,321z"/>
	</g>
	<g>
		
			<linearGradient id="SVGID_4_" gradientUnits="userSpaceOnUse" x1="2853.8347" y1="142.0435" x2="3154.6956" y2="309.7657" gradientTransform="matrix(-1 0 0 1 3202.8706 0)">
			<stop  offset="0" style="stop-color:#FDEABA"/>
			<stop  offset="1" style="stop-color:#EAAC9C"/>
		</linearGradient>
		<path class="st7" d="M0.9,321h519.8c1.4-13-86.9-0.4-181.8-37.9c-41.6-16.4-135.8-13.4-185.8-25.9c-49.8-12.5-35.7-41.9-82.1-61.1
			C27.5,178,47.4,60.1,0.9,61.5V321z"/>
	</g>
</g>
</svg>
